<?xml version="1.0" encoding="UTF-8"?>
<svg xmlns="http://www.w3.org/2000/svg" xmlns:xlink="http://www.w3.org/1999/xlink" width="4000" height="4000" viewBox="0 0 4000 4000">
<defs>
<clipPath id="clip-0">
<path clip-rule="nonzero" d="M 1198 1186 L 2680 1186 L 2680 2253 L 1198 2253 Z M 1198 1186 "/>
</clipPath>
<clipPath id="clip-1">
<path clip-rule="nonzero" d="M 1821.351562 2252.671875 C 1804.570312 2242.921875 1788.308594 2232.328125 1772.671875 2220.980469 C 1747.429688 2202.671875 1717.121094 2192.710938 1685.941406 2192.710938 L 1337.628906 2192.710938 C 1288.839844 2192.710938 1247.921875 2152.78125 1248.980469 2104.019531 C 1249.46875 2080.800781 1259.078125 2059.820312 1274.371094 2044.53125 C 1290.078125 2028.820312 1311.78125 2019.121094 1335.738281 2019.121094 L 1690.351562 2019.121094 C 1714.328125 2019.121094 1736.039062 2009.410156 1751.738281 1993.691406 C 1767.039062 1978.390625 1776.648438 1957.410156 1777.160156 1934.199219 C 1778.199219 1885.429688 1737.269531 1845.511719 1688.511719 1845.511719 L 1544.121094 1845.511719 C 1496.859375 1845.511719 1457.199219 1808.308594 1455.960938 1761.078125 C 1455.289062 1736.179688 1465.121094 1713.570312 1481.351562 1697.328125 C 1497.058594 1681.609375 1518.738281 1671.898438 1542.710938 1671.898438 L 1624.738281 1671.898438 C 1648.710938 1671.898438 1670.410156 1662.199219 1686.121094 1646.488281 C 1701.410156 1631.199219 1711.019531 1610.230469 1711.511719 1587.019531 C 1712.058594 1562.039062 1701.589844 1539.371094 1684.691406 1523.21875 C 1756.921875 1422.660156 1918.488281 1264.488281 2220.339844 1264.488281 C 2284.769531 1264.488281 2355.609375 1271.699219 2433.308594 1288.21875 C 2344.308594 1226.289062 2236.941406 1189 2121.058594 1186.410156 C 2120.878906 1186.410156 2120.699219 1186.398438 2120.519531 1186.398438 C 2120.699219 1186.398438 2120.878906 1186.410156 2121.058594 1186.410156 C 2236.941406 1189 2344.308594 1226.289062 2433.308594 1288.21875 C 2542.570312 1364.179688 2624.160156 1477.21875 2659.839844 1608.609375 C 2672.789062 1656.300781 2679.710938 1706.390625 2679.710938 1758.019531 C 2679.710938 1706.390625 2672.789062 1656.300781 2659.839844 1608.609375 C 2608.960938 1796.761719 2431.039062 2180.839844 1821.351562 2252.671875 M 1304.800781 1843.941406 L 1285.289062 1843.941406 C 1237.351562 1843.941406 1198.488281 1805.078125 1198.488281 1757.160156 C 1198.488281 1733.179688 1208.199219 1711.46875 1223.921875 1695.761719 C 1239.628906 1680.039062 1261.328125 1670.328125 1285.289062 1670.328125 L 1304.800781 1670.328125 C 1352.738281 1670.328125 1391.628906 1709.21875 1391.628906 1757.160156 C 1391.628906 1781.121094 1381.898438 1802.820312 1366.179688 1818.53125 C 1350.46875 1834.238281 1328.761719 1843.941406 1304.800781 1843.941406 M 1330.488281 1411.460938 C 1330.488281 1411.28125 1330.488281 1411.089844 1330.488281 1410.898438 C 1330.648438 1387.179688 1340.351562 1365.710938 1355.921875 1350.140625 C 1371.628906 1334.429688 1393.328125 1324.730469 1417.289062 1324.730469 L 1683.859375 1324.730469 C 1715.328125 1324.730469 1745.859375 1314.488281 1771.269531 1295.921875 C 1771.609375 1295.671875 1771.949219 1295.429688 1772.289062 1295.179688 C 1771.949219 1295.429688 1771.609375 1295.671875 1771.269531 1295.921875 C 1745.859375 1314.488281 1715.328125 1324.730469 1683.859375 1324.730469 L 1417.289062 1324.730469 C 1393.328125 1324.730469 1371.628906 1334.429688 1355.921875 1350.140625 C 1340.351562 1365.710938 1330.648438 1387.179688 1330.488281 1410.898438 C 1330.488281 1411.089844 1330.488281 1411.28125 1330.488281 1411.460938 M 1772.550781 1294.988281 C 1772.75 1294.851562 1772.941406 1294.710938 1773.140625 1294.570312 C 1772.941406 1294.710938 1772.75 1294.851562 1772.550781 1294.988281 M 1774.179688 1293.820312 C 1868.109375 1226.140625 1983.410156 1186.28125 2108.011719 1186.269531 C 1983.421875 1186.28125 1868.101562 1226.140625 1774.179688 1293.820312 M 2108.070312 1186.269531 L 2108.070312 1186.269531 "/>
</clipPath>
<clipPath id="clip-2">
<path clip-rule="nonzero" d="M 1821.351562 2252.671875 C 1804.570312 2242.921875 1788.308594 2232.328125 1772.671875 2220.980469 C 1747.429688 2202.671875 1717.121094 2192.710938 1685.941406 2192.710938 L 1337.628906 2192.710938 C 1288.839844 2192.710938 1247.921875 2152.78125 1248.980469 2104.019531 C 1249.46875 2080.800781 1259.078125 2059.820312 1274.371094 2044.53125 C 1290.078125 2028.820312 1311.78125 2019.121094 1335.738281 2019.121094 L 1690.351562 2019.121094 C 1714.328125 2019.121094 1736.039062 2009.410156 1751.738281 1993.691406 C 1767.039062 1978.390625 1776.648438 1957.410156 1777.160156 1934.199219 C 1778.199219 1885.429688 1737.269531 1845.511719 1688.511719 1845.511719 L 1544.121094 1845.511719 C 1496.859375 1845.511719 1457.199219 1808.308594 1455.960938 1761.078125 C 1455.289062 1736.179688 1465.121094 1713.570312 1481.351562 1697.328125 C 1497.058594 1681.609375 1518.738281 1671.898438 1542.710938 1671.898438 L 1624.738281 1671.898438 C 1648.710938 1671.898438 1670.410156 1662.199219 1686.121094 1646.488281 C 1701.410156 1631.199219 1711.019531 1610.230469 1711.511719 1587.019531 C 1712.058594 1562.039062 1701.589844 1539.371094 1684.691406 1523.21875 C 1756.921875 1422.660156 1918.488281 1264.488281 2220.339844 1264.488281 C 2284.769531 1264.488281 2355.609375 1271.699219 2433.308594 1288.21875 C 2344.308594 1226.289062 2236.941406 1189 2121.058594 1186.410156 C 2120.878906 1186.410156 2120.699219 1186.398438 2120.519531 1186.398438 C 2120.699219 1186.398438 2120.878906 1186.410156 2121.058594 1186.410156 C 2236.941406 1189 2344.308594 1226.289062 2433.308594 1288.21875 C 2542.570312 1364.179688 2624.160156 1477.21875 2659.839844 1608.609375 C 2672.789062 1656.300781 2679.710938 1706.390625 2679.710938 1758.019531 C 2679.710938 1706.390625 2672.789062 1656.300781 2659.839844 1608.609375 C 2608.960938 1796.761719 2431.039062 2180.839844 1821.351562 2252.671875 M 1304.800781 1843.941406 L 1285.289062 1843.941406 C 1237.351562 1843.941406 1198.488281 1805.078125 1198.488281 1757.160156 C 1198.488281 1733.179688 1208.199219 1711.46875 1223.921875 1695.761719 C 1239.628906 1680.039062 1261.328125 1670.328125 1285.289062 1670.328125 L 1304.800781 1670.328125 C 1352.738281 1670.328125 1391.628906 1709.21875 1391.628906 1757.160156 C 1391.628906 1781.121094 1381.898438 1802.820312 1366.179688 1818.53125 C 1350.46875 1834.238281 1328.761719 1843.941406 1304.800781 1843.941406 M 1330.488281 1411.460938 C 1330.488281 1411.28125 1330.488281 1411.089844 1330.488281 1410.898438 C 1330.648438 1387.179688 1340.351562 1365.710938 1355.921875 1350.140625 C 1371.628906 1334.429688 1393.328125 1324.730469 1417.289062 1324.730469 L 1683.859375 1324.730469 C 1715.328125 1324.730469 1745.859375 1314.488281 1771.269531 1295.921875 C 1771.609375 1295.671875 1771.949219 1295.429688 1772.289062 1295.179688 C 1771.949219 1295.429688 1771.609375 1295.671875 1771.269531 1295.921875 C 1745.859375 1314.488281 1715.328125 1324.730469 1683.859375 1324.730469 L 1417.289062 1324.730469 C 1393.328125 1324.730469 1371.628906 1334.429688 1355.921875 1350.140625 C 1340.351562 1365.710938 1330.648438 1387.179688 1330.488281 1410.898438 C 1330.488281 1411.089844 1330.488281 1411.28125 1330.488281 1411.460938 M 1772.550781 1294.988281 C 1772.75 1294.851562 1772.941406 1294.710938 1773.140625 1294.570312 C 1772.941406 1294.710938 1772.75 1294.851562 1772.550781 1294.988281 M 1774.179688 1293.820312 C 1868.109375 1226.140625 1983.410156 1186.28125 2108.011719 1186.269531 C 1983.421875 1186.28125 1868.101562 1226.140625 1774.179688 1293.820312 M 2108.070312 1186.269531 L 2108.070312 1186.269531 "/>
</clipPath>
<linearGradient id="linear-pattern-0" gradientUnits="userSpaceOnUse" x1="-0.116276" y1="0" x2="1.167666" y2="0" gradientTransform="matrix(1215.81, -726.548, 726.548, 1215.81, 1318.58, 2132.58)">
<stop offset="0" stop-color="rgb(100%, 46.665955%, 12.548828%)" stop-opacity="1"/>
<stop offset="0.0625" stop-color="rgb(100%, 46.665955%, 12.548828%)" stop-opacity="1"/>
<stop offset="0.09375" stop-color="rgb(100%, 46.635437%, 12.536621%)" stop-opacity="1"/>
<stop offset="0.109375" stop-color="rgb(100%, 46.459961%, 12.471008%)" stop-opacity="1"/>
<stop offset="0.125" stop-color="rgb(100%, 46.170044%, 12.361145%)" stop-opacity="1"/>
<stop offset="0.140625" stop-color="rgb(100%, 45.878601%, 12.249756%)" stop-opacity="1"/>
<stop offset="0.15625" stop-color="rgb(100%, 45.587158%, 12.139893%)" stop-opacity="1"/>
<stop offset="0.171875" stop-color="rgb(100%, 45.295715%, 12.030029%)" stop-opacity="1"/>
<stop offset="0.1875" stop-color="rgb(100%, 45.004272%, 11.920166%)" stop-opacity="1"/>
<stop offset="0.203125" stop-color="rgb(100%, 44.714355%, 11.810303%)" stop-opacity="1"/>
<stop offset="0.21875" stop-color="rgb(100%, 44.422913%, 11.698914%)" stop-opacity="1"/>
<stop offset="0.234375" stop-color="rgb(100%, 44.13147%, 11.58905%)" stop-opacity="1"/>
<stop offset="0.25" stop-color="rgb(100%, 43.840027%, 11.479187%)" stop-opacity="1"/>
<stop offset="0.265625" stop-color="rgb(100%, 43.55011%, 11.369324%)" stop-opacity="1"/>
<stop offset="0.28125" stop-color="rgb(100%, 43.258667%, 11.25946%)" stop-opacity="1"/>
<stop offset="0.296875" stop-color="rgb(100%, 42.967224%, 11.149597%)" stop-opacity="1"/>
<stop offset="0.3125" stop-color="rgb(100%, 42.675781%, 11.038208%)" stop-opacity="1"/>
<stop offset="0.328125" stop-color="rgb(100%, 42.385864%, 10.928345%)" stop-opacity="1"/>
<stop offset="0.34375" stop-color="rgb(100%, 42.094421%, 10.818481%)" stop-opacity="1"/>
<stop offset="0.359375" stop-color="rgb(100%, 41.802979%, 10.708618%)" stop-opacity="1"/>
<stop offset="0.375" stop-color="rgb(100%, 41.511536%, 10.598755%)" stop-opacity="1"/>
<stop offset="0.390625" stop-color="rgb(100%, 41.220093%, 10.487366%)" stop-opacity="1"/>
<stop offset="0.40625" stop-color="rgb(100%, 40.930176%, 10.377502%)" stop-opacity="1"/>
<stop offset="0.421875" stop-color="rgb(100%, 40.638733%, 10.267639%)" stop-opacity="1"/>
<stop offset="0.4375" stop-color="rgb(100%, 40.34729%, 10.157776%)" stop-opacity="1"/>
<stop offset="0.453125" stop-color="rgb(100%, 40.055847%, 10.047913%)" stop-opacity="1"/>
<stop offset="0.46875" stop-color="rgb(100%, 39.76593%, 9.938049%)" stop-opacity="1"/>
<stop offset="0.484375" stop-color="rgb(100%, 39.474487%, 9.82666%)" stop-opacity="1"/>
<stop offset="0.5" stop-color="rgb(100%, 39.183044%, 9.716797%)" stop-opacity="1"/>
<stop offset="0.515625" stop-color="rgb(100%, 38.891602%, 9.606934%)" stop-opacity="1"/>
<stop offset="0.53125" stop-color="rgb(100%, 38.601685%, 9.49707%)" stop-opacity="1"/>
<stop offset="0.546875" stop-color="rgb(100%, 38.310242%, 9.387207%)" stop-opacity="1"/>
<stop offset="0.5625" stop-color="rgb(100%, 38.018799%, 9.275818%)" stop-opacity="1"/>
<stop offset="0.578125" stop-color="rgb(100%, 37.727356%, 9.165955%)" stop-opacity="1"/>
<stop offset="0.59375" stop-color="rgb(100%, 37.435913%, 9.056091%)" stop-opacity="1"/>
<stop offset="0.609375" stop-color="rgb(100%, 37.145996%, 8.946228%)" stop-opacity="1"/>
<stop offset="0.625" stop-color="rgb(100%, 36.854553%, 8.836365%)" stop-opacity="1"/>
<stop offset="0.640625" stop-color="rgb(100%, 36.56311%, 8.724976%)" stop-opacity="1"/>
<stop offset="0.65625" stop-color="rgb(100%, 36.271667%, 8.615112%)" stop-opacity="1"/>
<stop offset="0.671875" stop-color="rgb(100%, 35.98175%, 8.505249%)" stop-opacity="1"/>
<stop offset="0.6875" stop-color="rgb(100%, 35.690308%, 8.395386%)" stop-opacity="1"/>
<stop offset="0.703125" stop-color="rgb(100%, 35.398865%, 8.285522%)" stop-opacity="1"/>
<stop offset="0.71875" stop-color="rgb(100%, 35.107422%, 8.175659%)" stop-opacity="1"/>
<stop offset="0.734375" stop-color="rgb(100%, 34.817505%, 8.06427%)" stop-opacity="1"/>
<stop offset="0.75" stop-color="rgb(100%, 34.526062%, 7.954407%)" stop-opacity="1"/>
<stop offset="0.765625" stop-color="rgb(100%, 34.234619%, 7.844543%)" stop-opacity="1"/>
<stop offset="0.78125" stop-color="rgb(100%, 33.943176%, 7.73468%)" stop-opacity="1"/>
<stop offset="0.796875" stop-color="rgb(100%, 33.651733%, 7.624817%)" stop-opacity="1"/>
<stop offset="0.8125" stop-color="rgb(100%, 33.361816%, 7.513428%)" stop-opacity="1"/>
<stop offset="0.828125" stop-color="rgb(100%, 33.070374%, 7.403564%)" stop-opacity="1"/>
<stop offset="0.84375" stop-color="rgb(100%, 32.778931%, 7.293701%)" stop-opacity="1"/>
<stop offset="0.859375" stop-color="rgb(100%, 32.487488%, 7.183838%)" stop-opacity="1"/>
<stop offset="0.875" stop-color="rgb(100%, 32.249451%, 7.093811%)" stop-opacity="1"/>
<stop offset="1" stop-color="rgb(100%, 32.156372%, 7.058716%)" stop-opacity="1"/>
</linearGradient>
<clipPath id="clip-3">
<path clip-rule="nonzero" d="M 1821 1608 L 2680 1608 L 2680 2330 L 1821 2330 Z M 1821 1608 "/>
</clipPath>
<clipPath id="clip-4">
<path clip-rule="nonzero" d="M 2108.019531 2329.628906 C 2003.550781 2329.628906 1905.628906 2301.609375 1821.351562 2252.671875 C 2431.039062 2180.839844 2608.960938 1796.761719 2659.839844 1608.609375 C 2672.789062 1656.300781 2679.710938 1706.390625 2679.710938 1758.019531 C 2679.710938 1758.21875 2679.710938 1758.421875 2679.710938 1758.628906 C 2679.351562 2074.058594 2423.53125 2329.628906 2108.019531 2329.628906 "/>
</clipPath>
<clipPath id="clip-5">
<path clip-rule="nonzero" d="M 2108.019531 2329.628906 C 2003.550781 2329.628906 1905.628906 2301.609375 1821.351562 2252.671875 C 2431.039062 2180.839844 2608.960938 1796.761719 2659.839844 1608.609375 C 2672.789062 1656.300781 2679.710938 1706.390625 2679.710938 1758.019531 C 2679.710938 1758.21875 2679.710938 1758.421875 2679.710938 1758.628906 C 2679.351562 2074.058594 2423.53125 2329.628906 2108.019531 2329.628906 "/>
</clipPath>
<linearGradient id="linear-pattern-1" gradientUnits="userSpaceOnUse" x1="0.233346" y1="0" x2="1.014705" y2="0" gradientTransform="matrix(1215.81, -726.548, 726.548, 1215.81, 1318.58, 2132.58)">
<stop offset="0" stop-color="rgb(97.645569%, 38.156128%, 9.803772%)" stop-opacity="1"/>
<stop offset="0.015625" stop-color="rgb(97.645569%, 38.096619%, 9.710693%)" stop-opacity="1"/>
<stop offset="0.03125" stop-color="rgb(97.645569%, 37.991333%, 9.515381%)" stop-opacity="1"/>
<stop offset="0.046875" stop-color="rgb(97.645569%, 37.792969%, 9.411621%)" stop-opacity="1"/>
<stop offset="0.0625" stop-color="rgb(97.645569%, 37.492371%, 9.411621%)" stop-opacity="1"/>
<stop offset="0.09375" stop-color="rgb(97.645569%, 37.236023%, 9.411621%)" stop-opacity="1"/>
<stop offset="0.125" stop-color="rgb(97.645569%, 36.99646%, 9.243774%)" stop-opacity="1"/>
<stop offset="0.140625" stop-color="rgb(97.645569%, 36.740112%, 9.046936%)" stop-opacity="1"/>
<stop offset="0.15625" stop-color="rgb(97.645569%, 36.46698%, 9.01947%)" stop-opacity="1"/>
<stop offset="0.1875" stop-color="rgb(97.645569%, 36.196899%, 9.01947%)" stop-opacity="1"/>
<stop offset="0.203125" stop-color="rgb(97.645569%, 36.077881%, 8.882141%)" stop-opacity="1"/>
<stop offset="0.21875" stop-color="rgb(97.645569%, 36.077881%, 8.685303%)" stop-opacity="1"/>
<stop offset="0.234375" stop-color="rgb(97.645569%, 36.030579%, 8.627319%)" stop-opacity="1"/>
<stop offset="0.25" stop-color="rgb(97.645569%, 35.835266%, 8.627319%)" stop-opacity="1"/>
<stop offset="0.28125" stop-color="rgb(97.645569%, 35.578918%, 8.627319%)" stop-opacity="1"/>
<stop offset="0.296875" stop-color="rgb(97.645569%, 35.321045%, 8.564758%)" stop-opacity="1"/>
<stop offset="0.3125" stop-color="rgb(97.645569%, 35.035706%, 8.369446%)" stop-opacity="1"/>
<stop offset="0.34375" stop-color="rgb(97.645569%, 34.779358%, 8.235168%)" stop-opacity="1"/>
<stop offset="0.375" stop-color="rgb(97.645569%, 34.552002%, 8.235168%)" stop-opacity="1"/>
<stop offset="0.390625" stop-color="rgb(97.645569%, 34.295654%, 8.235168%)" stop-opacity="1"/>
<stop offset="0.40625" stop-color="rgb(97.645569%, 33.99353%, 8.235168%)" stop-opacity="1"/>
<stop offset="0.4375" stop-color="rgb(97.645569%, 33.737183%, 8.235168%)" stop-opacity="1"/>
<stop offset="0.46875" stop-color="rgb(97.645569%, 33.482361%, 8.235168%)" stop-opacity="1"/>
<stop offset="0.484375" stop-color="rgb(97.645569%, 33.332825%, 8.128357%)" stop-opacity="1"/>
<stop offset="0.5" stop-color="rgb(97.645569%, 33.332825%, 7.931519%)" stop-opacity="1"/>
<stop offset="0.53125" stop-color="rgb(97.645569%, 33.164978%, 7.843018%)" stop-opacity="1"/>
<stop offset="0.546875" stop-color="rgb(97.645569%, 32.847595%, 7.843018%)" stop-opacity="1"/>
<stop offset="0.5625" stop-color="rgb(97.645569%, 32.621765%, 7.765198%)" stop-opacity="1"/>
<stop offset="0.59375" stop-color="rgb(97.645569%, 32.365417%, 7.569885%)" stop-opacity="1"/>
<stop offset="0.625" stop-color="rgb(97.645569%, 32.078552%, 7.450867%)" stop-opacity="1"/>
<stop offset="0.640625" stop-color="rgb(97.645569%, 31.822205%, 7.450867%)" stop-opacity="1"/>
<stop offset="0.65625" stop-color="rgb(97.645569%, 31.521606%, 7.449341%)" stop-opacity="1"/>
<stop offset="0.6875" stop-color="rgb(97.645569%, 31.265259%, 7.252502%)" stop-opacity="1"/>
<stop offset="0.71875" stop-color="rgb(97.645569%, 31.053162%, 7.058716%)" stop-opacity="1"/>
<stop offset="0.75" stop-color="rgb(97.645569%, 30.767822%, 6.936646%)" stop-opacity="1"/>
<stop offset="0.78125" stop-color="rgb(97.645569%, 30.555725%, 6.739807%)" stop-opacity="1"/>
<stop offset="0.8125" stop-color="rgb(97.645569%, 30.360413%, 6.666565%)" stop-opacity="1"/>
<stop offset="0.828125" stop-color="rgb(97.645569%, 30.104065%, 6.666565%)" stop-opacity="1"/>
<stop offset="0.84375" stop-color="rgb(97.645569%, 29.907227%, 6.619263%)" stop-opacity="1"/>
<stop offset="0.875" stop-color="rgb(97.645569%, 29.650879%, 6.42395%)" stop-opacity="1"/>
<stop offset="0.890625" stop-color="rgb(97.645569%, 29.348755%, 6.274414%)" stop-opacity="1"/>
<stop offset="0.90625" stop-color="rgb(97.645569%, 29.107666%, 6.274414%)" stop-opacity="1"/>
<stop offset="0.9375" stop-color="rgb(97.645569%, 28.851318%, 6.106567%)" stop-opacity="1"/>
<stop offset="0.96875" stop-color="rgb(97.645569%, 28.579712%, 5.911255%)" stop-opacity="1"/>
<stop offset="1" stop-color="rgb(97.645569%, 28.353882%, 5.882263%)" stop-opacity="1"/>
</linearGradient>
<clipPath id="clip-6">
<path clip-rule="nonzero" d="M 1330 1186 L 2434 1186 L 2434 1524 L 1330 1524 Z M 1330 1186 "/>
</clipPath>
<clipPath id="clip-7">
<path clip-rule="nonzero" d="M 1684.691406 1523.21875 C 1668.589844 1507.820312 1646.671875 1498.308594 1622.859375 1498.308594 L 1418.839844 1498.308594 C 1370.929688 1498.308594 1330.46875 1459.289062 1330.488281 1411.460938 C 1330.488281 1411.28125 1330.488281 1411.089844 1330.488281 1410.898438 C 1330.648438 1387.179688 1340.351562 1365.710938 1355.921875 1350.140625 C 1371.628906 1334.429688 1393.328125 1324.730469 1417.289062 1324.730469 L 1683.859375 1324.730469 C 1715.328125 1324.730469 1745.859375 1314.488281 1771.269531 1295.921875 C 1771.609375 1295.671875 1771.949219 1295.429688 1772.289062 1295.179688 C 1772.371094 1295.121094 1772.46875 1295.050781 1772.550781 1294.988281 C 1772.75 1294.851562 1772.941406 1294.710938 1773.140625 1294.570312 C 1773.480469 1294.320312 1773.828125 1294.070312 1774.179688 1293.820312 C 1868.101562 1226.140625 1983.421875 1186.28125 2108.011719 1186.269531 C 2108.03125 1186.269531 2108.050781 1186.269531 2108.070312 1186.269531 C 2112.210938 1186.269531 2116.359375 1186.308594 2120.519531 1186.398438 C 2120.699219 1186.398438 2120.878906 1186.410156 2121.058594 1186.410156 C 2236.941406 1189 2344.308594 1226.289062 2433.308594 1288.21875 C 2355.609375 1271.699219 2284.769531 1264.488281 2220.339844 1264.488281 C 1918.488281 1264.488281 1756.921875 1422.660156 1684.691406 1523.21875 "/>
</clipPath>
<clipPath id="clip-8">
<path clip-rule="nonzero" d="M 1684.691406 1523.21875 C 1668.589844 1507.820312 1646.671875 1498.308594 1622.859375 1498.308594 L 1418.839844 1498.308594 C 1370.929688 1498.308594 1330.46875 1459.289062 1330.488281 1411.460938 C 1330.488281 1411.28125 1330.488281 1411.089844 1330.488281 1410.898438 C 1330.648438 1387.179688 1340.351562 1365.710938 1355.921875 1350.140625 C 1371.628906 1334.429688 1393.328125 1324.730469 1417.289062 1324.730469 L 1683.859375 1324.730469 C 1715.328125 1324.730469 1745.859375 1314.488281 1771.269531 1295.921875 C 1771.609375 1295.671875 1771.949219 1295.429688 1772.289062 1295.179688 C 1772.371094 1295.121094 1772.46875 1295.050781 1772.550781 1294.988281 C 1772.75 1294.851562 1772.941406 1294.710938 1773.140625 1294.570312 C 1773.480469 1294.320312 1773.828125 1294.070312 1774.179688 1293.820312 C 1868.101562 1226.140625 1983.421875 1186.28125 2108.011719 1186.269531 C 2108.03125 1186.269531 2108.050781 1186.269531 2108.070312 1186.269531 C 2112.210938 1186.269531 2116.359375 1186.308594 2120.519531 1186.398438 C 2120.699219 1186.398438 2120.878906 1186.410156 2121.058594 1186.410156 C 2236.941406 1189 2344.308594 1226.289062 2433.308594 1288.21875 C 2355.609375 1271.699219 2284.769531 1264.488281 2220.339844 1264.488281 C 1918.488281 1264.488281 1756.921875 1422.660156 1684.691406 1523.21875 "/>
</clipPath>
<linearGradient id="linear-pattern-2" gradientUnits="userSpaceOnUse" x1="0.227901" y1="0" x2="1.018331" y2="0" gradientTransform="matrix(1215.81, -726.548, 726.548, 1215.81, 1318.58, 2132.58)">
<stop offset="0" stop-color="rgb(100%, 46.917725%, 13.33313%)" stop-opacity="1"/>
<stop offset="0.03125" stop-color="rgb(100%, 46.791077%, 13.153076%)" stop-opacity="1"/>
<stop offset="0.046875" stop-color="rgb(100%, 46.530151%, 12.957764%)" stop-opacity="1"/>
<stop offset="0.0625" stop-color="rgb(100%, 46.24176%, 12.940979%)" stop-opacity="1"/>
<stop offset="0.09375" stop-color="rgb(100%, 45.979309%, 12.940979%)" stop-opacity="1"/>
<stop offset="0.125" stop-color="rgb(100%, 45.680237%, 12.826538%)" stop-opacity="1"/>
<stop offset="0.140625" stop-color="rgb(100%, 45.417786%, 12.6297%)" stop-opacity="1"/>
<stop offset="0.15625" stop-color="rgb(100%, 45.195007%, 12.548828%)" stop-opacity="1"/>
<stop offset="0.1875" stop-color="rgb(100%, 44.873047%, 12.548828%)" stop-opacity="1"/>
<stop offset="0.203125" stop-color="rgb(100%, 44.612122%, 12.45575%)" stop-opacity="1"/>
<stop offset="0.21875" stop-color="rgb(100%, 44.415283%, 12.258911%)" stop-opacity="1"/>
<stop offset="0.25" stop-color="rgb(100%, 44.313049%, 12.156677%)" stop-opacity="1"/>
<stop offset="0.28125" stop-color="rgb(100%, 44.241333%, 12.156677%)" stop-opacity="1"/>
<stop offset="0.296875" stop-color="rgb(100%, 44.018555%, 12.127686%)" stop-opacity="1"/>
<stop offset="0.3125" stop-color="rgb(100%, 43.713379%, 11.947632%)" stop-opacity="1"/>
<stop offset="0.34375" stop-color="rgb(100%, 43.450928%, 11.779785%)" stop-opacity="1"/>
<stop offset="0.375" stop-color="rgb(100%, 43.232727%, 11.756897%)" stop-opacity="1"/>
<stop offset="0.390625" stop-color="rgb(100%, 42.971802%, 11.598206%)" stop-opacity="1"/>
<stop offset="0.40625" stop-color="rgb(100%, 42.666626%, 11.408997%)" stop-opacity="1"/>
<stop offset="0.4375" stop-color="rgb(100%, 42.404175%, 11.372375%)" stop-opacity="1"/>
<stop offset="0.46875" stop-color="rgb(100%, 42.127991%, 11.372375%)" stop-opacity="1"/>
<stop offset="0.484375" stop-color="rgb(100%, 41.86554%, 11.372375%)" stop-opacity="1"/>
<stop offset="0.5" stop-color="rgb(100%, 41.670227%, 11.372375%)" stop-opacity="1"/>
<stop offset="0.53125" stop-color="rgb(100%, 41.407776%, 11.372375%)" stop-opacity="1"/>
<stop offset="0.546875" stop-color="rgb(100%, 41.096497%, 11.372375%)" stop-opacity="1"/>
<stop offset="0.5625" stop-color="rgb(100%, 40.863037%, 11.299133%)" stop-opacity="1"/>
<stop offset="0.59375" stop-color="rgb(100%, 40.602112%, 11.103821%)" stop-opacity="1"/>
<stop offset="0.625" stop-color="rgb(100%, 40.310669%, 10.980225%)" stop-opacity="1"/>
<stop offset="0.640625" stop-color="rgb(100%, 40.049744%, 10.980225%)" stop-opacity="1"/>
<stop offset="0.65625" stop-color="rgb(100%, 39.752197%, 10.972595%)" stop-opacity="1"/>
<stop offset="0.6875" stop-color="rgb(100%, 39.489746%, 10.775757%)" stop-opacity="1"/>
<stop offset="0.71875" stop-color="rgb(100%, 39.263916%, 10.588074%)" stop-opacity="1"/>
<stop offset="0.75" stop-color="rgb(100%, 38.989258%, 10.449219%)" stop-opacity="1"/>
<stop offset="0.78125" stop-color="rgb(100%, 38.771057%, 10.25238%)" stop-opacity="1"/>
<stop offset="0.8125" stop-color="rgb(100%, 38.575745%, 10.195923%)" stop-opacity="1"/>
<stop offset="0.828125" stop-color="rgb(100%, 38.313293%, 10.195923%)" stop-opacity="1"/>
<stop offset="0.84375" stop-color="rgb(100%, 38.117981%, 10.121155%)" stop-opacity="1"/>
<stop offset="0.875" stop-color="rgb(100%, 37.85553%, 9.925842%)" stop-opacity="1"/>
<stop offset="0.890625" stop-color="rgb(100%, 37.521362%, 9.803772%)" stop-opacity="1"/>
<stop offset="0.90625" stop-color="rgb(100%, 37.310791%, 9.803772%)" stop-opacity="1"/>
<stop offset="0.921875" stop-color="rgb(100%, 37.202454%, 9.751892%)" stop-opacity="1"/>
<stop offset="0.9375" stop-color="rgb(100%, 37.005615%, 9.555054%)" stop-opacity="1"/>
<stop offset="0.96875" stop-color="rgb(100%, 36.74469%, 9.411621%)" stop-opacity="1"/>
<stop offset="1" stop-color="rgb(100%, 36.547852%, 9.411621%)" stop-opacity="1"/>
</linearGradient>
</defs>
<rect x="-400" y="-400" width="4800" height="4800" fill="rgb(100%, 100%, 100%)" fill-opacity="1"/>
<g clip-path="url(#clip-0)">
<g clip-path="url(#clip-1)">
<g clip-path="url(#clip-2)">
<path fill-rule="nonzero" fill="url(#linear-pattern-0)" d="M 728.914062 1466.878906 L 1588.253906 2904.90625 L 3149.285156 1972.058594 L 2289.945312 534.035156 Z M 728.914062 1466.878906 "/>
</g>
</g>
</g>
<g clip-path="url(#clip-3)">
<g clip-path="url(#clip-4)">
<g clip-path="url(#clip-5)">
<path fill-rule="nonzero" fill="url(#linear-pattern-1)" d="M 1503.859375 1798.335938 L 2047.21875 2707.597656 L 2997.203125 2139.902344 L 2453.84375 1230.644531 Z M 1503.859375 1798.335938 "/>
</g>
</g>
</g>
<path fill-rule="nonzero" fill="rgb(100%, 100%, 100%)" fill-opacity="1" d="M 2117.769531 1566.429688 C 2117.769531 1472.488281 2052.148438 1376.46875 1993.421875 1376.46875 C 1934.699219 1376.46875 1869.078125 1472.488281 1869.078125 1566.429688 C 1869.078125 1619.46875 1886.839844 1660.511719 1914.648438 1686.191406 C 1943.078125 1712.441406 1959.308594 1749.308594 1957.570312 1787.960938 C 1951.5 1923.109375 1944.03125 2089.160156 1944.03125 2089.160156 C 1942.609375 2117.980469 1966.808594 2142.21875 1995.640625 2140.769531 C 2022.921875 2139.550781 2044.039062 2116.441406 2042.808594 2089.160156 L 2029.28125 1787.960938 C 2027.539062 1749.308594 2043.769531 1712.441406 2072.199219 1686.191406 C 2100.011719 1660.511719 2117.769531 1619.46875 2117.769531 1566.429688 "/>
<path fill-rule="nonzero" fill="rgb(100%, 100%, 100%)" fill-opacity="1" d="M 2177.628906 2139.449219 C 2192.050781 2139.449219 2203.730469 2127.761719 2203.730469 2113.339844 L 2203.730469 1970.699219 C 2203.730469 1959.019531 2213.199219 1949.550781 2224.878906 1949.550781 C 2236.558594 1949.550781 2246.03125 1959.019531 2246.03125 1970.699219 L 2246.03125 2113.339844 C 2246.03125 2127.761719 2257.71875 2139.449219 2272.140625 2139.449219 C 2286.550781 2139.449219 2298.238281 2127.761719 2298.238281 2113.339844 L 2298.238281 1970.699219 C 2298.238281 1959.019531 2307.710938 1949.550781 2319.390625 1949.550781 C 2331.070312 1949.550781 2340.539062 1959.019531 2340.539062 1970.699219 L 2340.539062 2113.339844 C 2340.539062 2127.761719 2352.230469 2139.449219 2366.648438 2139.449219 C 2381.058594 2139.449219 2392.75 2127.761719 2392.75 2113.339844 L 2392.75 1929.039062 C 2392.75 1904.789062 2386.839844 1880.78125 2374.730469 1859.769531 C 2367.839844 1847.820312 2359.511719 1837.488281 2350.050781 1828.929688 C 2321.238281 1802.851562 2306.328125 1764.769531 2308.070312 1725.960938 C 2314.128906 1591.179688 2321.519531 1426.761719 2321.519531 1426.761719 C 2322.941406 1397.941406 2298.75 1373.699219 2269.910156 1375.148438 C 2242.628906 1376.371094 2221.511719 1399.480469 2222.738281 1426.761719 L 2236.179688 1725.96875 C 2237.929688 1764.769531 2223.019531 1802.859375 2194.21875 1828.929688 C 2184.75 1837.5 2176.429688 1847.820312 2169.539062 1859.78125 C 2157.429688 1880.78125 2151.53125 1904.789062 2151.53125 1929.039062 L 2151.53125 2113.339844 C 2151.53125 2127.761719 2163.210938 2139.449219 2177.628906 2139.449219 "/>
<path fill-rule="nonzero" fill="rgb(7.835388%, 15.281677%, 38.035583%)" fill-opacity="1" d="M 872.40625 2595.21875 L 872.40625 2664.679688 L 994.050781 2664.679688 L 994.050781 2713.488281 L 872.40625 2713.488281 L 872.40625 2809.21875 L 811.585938 2809.21875 L 811.585938 2546.410156 L 1010.191406 2546.410156 L 1010.191406 2595.21875 L 872.40625 2595.21875 "/>
<path fill-rule="nonzero" fill="rgb(7.835388%, 15.281677%, 38.035583%)" fill-opacity="1" d="M 1258.351562 2677.820312 C 1258.351562 2627.890625 1223.058594 2593.71875 1176.128906 2593.71875 C 1129.199219 2593.71875 1093.910156 2627.890625 1093.910156 2677.820312 C 1093.910156 2727.75 1129.199219 2761.921875 1176.128906 2761.921875 C 1223.058594 2761.921875 1258.351562 2727.75 1258.351562 2677.820312 Z M 1032.328125 2677.820312 C 1032.328125 2599.730469 1093.160156 2541.910156 1176.128906 2541.910156 C 1258.71875 2541.910156 1319.921875 2599.351562 1319.921875 2677.820312 C 1319.921875 2756.289062 1258.71875 2813.730469 1176.128906 2813.730469 C 1093.160156 2813.730469 1032.328125 2755.910156 1032.328125 2677.820312 "/>
<path fill-rule="nonzero" fill="rgb(7.835388%, 15.281677%, 38.035583%)" fill-opacity="1" d="M 1575.210938 2677.820312 C 1575.210938 2627.890625 1539.921875 2593.71875 1492.988281 2593.71875 C 1446.058594 2593.71875 1410.769531 2627.890625 1410.769531 2677.820312 C 1410.769531 2727.75 1446.058594 2761.921875 1492.988281 2761.921875 C 1539.921875 2761.921875 1575.210938 2727.75 1575.210938 2677.820312 Z M 1349.199219 2677.820312 C 1349.199219 2599.730469 1410.019531 2541.910156 1492.988281 2541.910156 C 1575.589844 2541.910156 1636.78125 2599.351562 1636.78125 2677.820312 C 1636.78125 2756.289062 1575.589844 2813.730469 1492.988281 2813.730469 C 1410.019531 2813.730469 1349.199219 2755.910156 1349.199219 2677.820312 "/>
<path fill-rule="nonzero" fill="rgb(7.835388%, 15.281677%, 38.035583%)" fill-opacity="1" d="M 1798.960938 2759.289062 C 1851.148438 2759.289062 1885.308594 2728.128906 1885.308594 2677.820312 C 1885.308594 2627.511719 1851.148438 2596.351562 1798.960938 2596.351562 L 1743.398438 2596.351562 L 1743.398438 2759.289062 Z M 1682.578125 2546.410156 L 1801.960938 2546.410156 C 1887.941406 2546.410156 1946.878906 2598.21875 1946.878906 2677.820312 C 1946.878906 2757.410156 1887.941406 2809.21875 1801.960938 2809.21875 L 1682.578125 2809.21875 L 1682.578125 2546.410156 "/>
<path fill-rule="nonzero" fill="rgb(7.835388%, 15.281677%, 38.035583%)" fill-opacity="1" d="M 2107.179688 2546.410156 L 2144.71875 2546.410156 L 2144.71875 2776.558594 L 2287.011719 2776.558594 L 2287.011719 2809.21875 L 2107.179688 2809.21875 L 2107.179688 2546.410156 "/>
<path fill-rule="nonzero" fill="rgb(7.835388%, 15.281677%, 38.035583%)" fill-opacity="1" d="M 2545.679688 2677.820312 C 2545.679688 2619.628906 2502.128906 2576.820312 2443.941406 2576.820312 C 2385 2576.820312 2341.441406 2619.628906 2341.441406 2677.820312 C 2341.441406 2736.011719 2385 2778.808594 2443.941406 2778.808594 C 2502.128906 2778.808594 2545.679688 2736.011719 2545.679688 2677.820312 Z M 2303.898438 2677.820312 C 2303.898438 2600.851562 2363.21875 2543.410156 2443.941406 2543.410156 C 2523.910156 2543.410156 2583.230469 2600.480469 2583.230469 2677.820312 C 2583.230469 2755.160156 2523.910156 2812.230469 2443.941406 2812.230469 C 2363.21875 2812.230469 2303.898438 2754.78125 2303.898438 2677.820312 "/>
<path fill-rule="nonzero" fill="rgb(7.835388%, 15.281677%, 38.035583%)" fill-opacity="1" d="M 2822.75 2676.320312 L 2858.789062 2676.320312 L 2858.789062 2778.808594 C 2832.511719 2800.960938 2796.089844 2812.230469 2759.300781 2812.230469 C 2678.578125 2812.230469 2619.261719 2755.539062 2619.261719 2677.820312 C 2619.261719 2600.101562 2678.578125 2543.410156 2760.050781 2543.410156 C 2801.71875 2543.410156 2837.011719 2557.300781 2861.039062 2583.960938 L 2837.761719 2607.230469 C 2815.988281 2586.210938 2791.210938 2576.820312 2761.550781 2576.820312 C 2700.730469 2576.820312 2656.808594 2619.25 2656.808594 2677.820312 C 2656.808594 2735.640625 2700.730469 2778.808594 2761.179688 2778.808594 C 2783.328125 2778.808594 2803.96875 2773.929688 2822.75 2761.921875 L 2822.75 2676.320312 "/>
<path fill-rule="nonzero" fill="rgb(7.835388%, 15.281677%, 38.035583%)" fill-opacity="1" d="M 3150.871094 2677.820312 C 3150.871094 2619.628906 3107.320312 2576.820312 3049.128906 2576.820312 C 2990.179688 2576.820312 2946.628906 2619.628906 2946.628906 2677.820312 C 2946.628906 2736.011719 2990.179688 2778.808594 3049.128906 2778.808594 C 3107.320312 2778.808594 3150.871094 2736.011719 3150.871094 2677.820312 Z M 2909.089844 2677.820312 C 2909.089844 2600.851562 2968.410156 2543.410156 3049.128906 2543.410156 C 3129.089844 2543.410156 3188.410156 2600.480469 3188.410156 2677.820312 C 3188.410156 2755.160156 3129.089844 2812.230469 3049.128906 2812.230469 C 2968.410156 2812.230469 2909.089844 2754.78125 2909.089844 2677.820312 "/>
<path fill-rule="nonzero" fill="rgb(100%, 100%, 100%)" fill-opacity="1" d="M 1772.289062 1295.179688 C 1772.371094 1295.121094 1772.46875 1295.050781 1772.550781 1294.988281 C 1772.46875 1295.050781 1772.371094 1295.121094 1772.289062 1295.179688 M 1773.140625 1294.570312 C 1773.480469 1294.320312 1773.828125 1294.070312 1774.179688 1293.820312 C 1773.828125 1294.070312 1773.480469 1294.320312 1773.140625 1294.570312 M 2120.519531 1186.398438 C 2116.359375 1186.308594 2112.210938 1186.269531 2108.070312 1186.269531 C 2112.210938 1186.269531 2116.359375 1186.308594 2120.519531 1186.398438 M 2108.011719 1186.269531 C 2108.03125 1186.269531 2108.050781 1186.269531 2108.070312 1186.269531 C 2108.050781 1186.269531 2108.03125 1186.269531 2108.011719 1186.269531 "/>
<g clip-path="url(#clip-6)">
<g clip-path="url(#clip-7)">
<g clip-path="url(#clip-8)">
<path fill-rule="nonzero" fill="url(#linear-pattern-2)" d="M 1182.097656 1274.933594 L 1620.667969 2008.839844 L 2581.679688 1434.554688 L 2143.109375 700.648438 Z M 1182.097656 1274.933594 "/>
</g>
</g>
</g>
</svg>
